# xmcd CD database file
#
# Track frame offsets:
#	150
#	14967
#	33122
#	57629
#	71184
#	78848
#	92195
#	100196
#	117742
#	126791
#	136530
#	155673
#
# Disc length: 2396 seconds
#
# Revision: 0
# Processed by: cddbd v1.5.2PL0 Copyright (c) Steve Scherf et al.
# Submitted via: CDex 1.70beta2
#
DISCID=a8095a0c
DTITLE=LITTLE G. WEEVIL - Moving
DYEAR=2013
DGENRE=Blues
TTITLE0=Shook It And Broke It
TTITLE1=On My Way To Memphis
TTITLE2=Mean And Dirty
TTITLE3=Boogie Through My Troubles
TTITLE4=Let Someone Else Do All The Work
TTITLE5=Deep Bow
TTITLE6=Advice
TTITLE7=Moving
TTITLE8=No Man In My Bed
TTITLE9=Fastest Man
TTITLE10=Let's Talk It Over (Come Back Baby)
TTITLE11=Swing In The Middle
EXTD=YEAR: 2013
EXTT0=
EXTT1=
EXTT2=
EXTT3=
EXTT4=
EXTT5=
EXTT6=
EXTT7=
EXTT8=
EXTT9=
EXTT10=
EXTT11=
PLAYORDER=
